#!OML:ASF H:\Terrain\Patient Classification 1\Walking\liu\liu.ASF
:FULLY-SPECIFIED
:DEGREES
17
root 7.604560 15.899000 -34.614498 7.093010 -4.172460 -5.229530
lowerback -3.096535 0.572990 0.802745
upperback -0.658885 0.673900 1.531400
thorax 1.038290 0.337757 1.180325
lowerneck -9.787200 -2.487870 -6.106950
upperneck 7.809400 -3.226405 7.604850
head 4.528670 -1.117270 3.218230
rclavicle 0.000000 0.000000
rhumerus -20.649500 9.697800 -44.019150
rradius 31.328951
rwrist -17.395100
rhand -15.296550 -16.221451
rfingers 3.562510
rthumb -1.945120 -31.193550
lclavicle 0.000000 0.000000
lhumerus -19.822201 -3.842370 44.971951
lradius 14.341500
lwrist 3.376165
lhand -3.656415 -11.761850
lfingers 3.562510
lthumb 9.284950 2.804945
rfemur 2.524785 3.208880 15.566700
rtibia 5.821550
rfoot -9.792300 -0.683985
rtoes -2.925935
lfemur -20.061100 -0.152798 -3.998635
ltibia 9.518050
lfoot -7.162650 7.520350
ltoes -6.471150
18
root 7.625190 15.892500 -34.473099 7.234270 -4.397650 -5.613660
lowerback -3.225145 0.585635 1.014720
upperback -0.647745 0.669220 1.600990
thorax 1.124850 0.336347 1.136485
lowerneck -9.808650 -2.476360 -6.121100
upperneck 7.777200 -3.187265 7.545550
head 4.513315 -1.105225 3.203495
rclavicle -0.000000 0.000000
rhumerus -20.731501 9.868250 -44.206299
rradius 31.408350
rwrist -17.546049
rhand -15.539150 -14.822550
rfingers 3.562510
rthumb -2.179375 -29.790100
lclavicle -0.000000 0.000000
lhumerus -19.908600 -3.928540 45.070950
lradius 14.281950
lwrist 3.355120
lhand -3.749420 -11.971700
lfingers 3.562510
lthumb 9.195500 2.603635
rfemur 3.000630 3.142990 15.695400
rtibia 5.272900
rfoot -9.526300 -0.547160
rtoes -3.336260
lfemur -20.206100 -0.568735 -3.432330
ltibia 9.399250
lfoot -7.671900 8.042450
ltoes -5.288750
19
root 7.636870 15.894500 -34.329399 7.121920 -5.051900 -6.093010
lowerback -3.188510 0.707130 1.359115
upperback -0.613745 0.809355 1.537645
thorax 1.147430 0.408446 0.889165
lowerneck -9.990750 -2.444590 -5.896150
upperneck 7.982900 -3.194530 7.455550
head 4.606205 -1.094145 3.137515
rclavicle 0.000000 -0.000000
rhumerus -20.784100 9.698150 -44.526501
rradius 31.368799
rwrist -17.454950
rhand -15.712100 -14.624050
rfingers 3.562510
rthumb -2.346385 -29.588051
lclavicle 0.000000 -0.000000
lhumerus -20.104401 -4.344500 45.071350
lradius 14.424050
lwrist 3.510700
lhand -3.810350 -11.648100
lfingers 3.562510
lthumb 9.136900 2.932720
rfemur 3.634250 3.358310 15.866350
rtibia 4.749240
rfoot -9.302550 -0.482608
rtoes -3.417440
lfemur -20.131950 -0.824170 -2.840100
ltibia 9.345000
lfoot -8.015200 8.617700
ltoes -5.281650
20
root 7.619730 15.899100 -34.206501 8.568660 -6.934490 -6.864590
lowerback -3.734195 1.062500 1.758615
upperback -0.841645 1.235875 1.409950
thorax 1.233580 0.622485 0.586650
lowerneck -10.025050 -2.373880 -5.527650
upperneck 8.108500 -3.198875 7.369600
head 4.640600 -1.078330 3.045470
rclavicle -0.000000 -0.000000
rhumerus -20.927900 9.483850 -45.014400
rradius 31.369499
rwrist -17.360500
rhand -15.412700 -15.975000
rfingers 3.562510
rthumb -2.057285 -30.945000
lclavicle -0.000000 -0.000000
lhumerus -20.388800 -4.758165 44.943802
lradius 14.600900
lwrist 3.603155
lhand -3.876215 -11.265300
lfingers 3.562510
lthumb 9.073500 3.321410
rfemur 3.517510 4.343185 16.042950
rtibia 4.032250
rfoot -8.646850 -0.505885
rtoes -3.663045
lfemur -20.631800 -0.241545 -2.122030
ltibia 9.287550
lfoot -8.207700 9.098950
ltoes -5.703050
21
root 7.641240 15.887300 -34.059898 8.647910 -7.060550 -6.848300
lowerback -3.828715 1.027560 1.859375
upperback -0.861285 1.178115 1.351950
thorax 1.271860 0.594410 0.468199
lowerneck -9.845100 -2.318305 -5.510550
upperneck 7.962900 -3.137085 7.418300
head 4.550740 -1.052490 3.064270
rclavicle -0.000000 0.000000
rhumerus -21.043200 9.589850 -45.295551
rradius 31.393551
rwrist -17.271549
rhand -14.980250 -17.218599
rfingers 3.562510
rthumb -1.639640 -32.195900
lclavicle -0.000000 0.000000
lhumerus -20.608200 -4.794595 44.926552
lradius 14.637750
lwrist 3.485135
lhand -4.057260 -10.982050
lfingers 3.562510
lthumb 8.899300 3.620700
rfemur 4.055640 4.296050 15.976100
rtibia 3.402525
rfoot -8.157200 -0.527680
rtoes -3.781025
lfemur -20.775999 -0.312285 -2.076400
ltibia 9.350550
lfoot -8.382700 9.106850
ltoes -6.206750
22
root 7.702660 15.860100 -33.891300 7.430590 -5.453020 -6.480790
lowerback -3.499965 0.698415 1.954210
upperback -0.647965 0.745225 1.311790
thorax 1.307480 0.381947 0.325678
lowerneck -9.899850 -2.336030 -5.625000
upperneck 7.927950 -3.146620 7.545200
head 4.559365 -1.049940 3.128380
rclavicle -0.000000 -0.000000
rhumerus -21.047150 9.660550 -45.401749
rradius 31.355749
rwrist -17.118700
rhand -14.927400 -16.093050
rfingers 3.562510
rthumb -1.588605 -31.071100
lclavicle -0.000000 -0.000000
lhumerus -20.643950 -4.813735 44.960449
lradius 14.463500
lwrist 3.293855
lhand -4.196015 -10.977750
lfingers 3.562510
lthumb 8.765800 3.636985
rfemur 5.349550 3.263900 15.867050
rtibia 2.610180
rfoot -7.927800 -0.542870
rtoes -3.997225
lfemur -20.521151 -0.867600 -2.535795
ltibia 9.321750
lfoot -8.140800 8.640400
ltoes -6.607950
23
root 7.682210 15.855200 -33.768501 9.098810 -7.871900 -7.615500
lowerback -4.221180 1.153145 2.207745
upperback -0.783220 1.282745 1.447460
thorax 1.583015 0.651970 0.403026
lowerneck -10.064250 -2.372525 -5.597800
upperneck 8.032700 -3.208680 7.571300
head 4.634680 -1.066675 3.128140
rclavicle -0.000000 0.000000
rhumerus -21.077299 9.651600 -45.553150
rradius 31.329550
rwrist -17.101200
rhand -15.018850 -14.680600
rfingers 3.562510
rthumb -1.676920 -29.657301
lclavicle -0.000000 0.000000
lhumerus -20.658899 -4.948645 44.986950
lradius 14.291250
lwrist 3.226205
lhand -4.277690 -11.201650
lfingers 3.562510
lthumb 8.687200 3.420080
rfemur 5.607400 4.545570 16.245850
rtibia 0.924150
rfoot -6.819050 -0.836090
rtoes -5.345050
lfemur -20.978001 0.304579 -1.836670
ltibia 9.343350
lfoot -7.958800 9.024200
ltoes -6.620100
24
root 7.750190 15.805600 -33.581100 7.241070 -5.450950 -6.781160
lowerback -3.624880 0.672700 2.093750
upperback -0.554285 0.685965 1.380050
thorax 1.474765 0.356096 0.317692
lowerneck -9.992600 -2.374230 -5.615250
upperneck 7.986350 -3.199405 7.536200
head 4.603365 -1.070505 3.117765
rclavicle -0.000000 -0.000000
rhumerus -21.222099 9.721250 -45.677200
rradius 31.322399
rwrist -17.017500
rhand -15.149000 -15.008450
rfingers 3.562510
rthumb -1.802635 -29.983101
lclavicle -0.000000 -0.000000
lhumerus -20.786949 -4.941490 45.079449
lradius 14.229450
lwrist 3.151580
lhand -4.314270 -11.215550
lfingers 3.562510
lthumb 8.652000 3.409275
rfemur 7.280500 3.023850 16.004200
rtibia 0.000000
rfoot -6.705000 -0.961890
rtoes -7.014900
lfemur -20.492201 -0.344272 -2.796175
ltibia 9.358350
lfoot -7.549400 8.055900
ltoes -6.718100
25
root 7.756550 15.810200 -33.444801 6.849410 -7.957410 -6.872600
lowerback -3.253725 1.028465 1.922130
upperback -0.502980 1.190825 1.455655
thorax 1.320560 0.604095 0.528130
lowerneck -9.883800 -2.349330 -5.659400
upperneck 7.869500 -3.136750 7.484800
head 4.533460 -1.055025 3.111500
rclavicle -0.000000 -0.000000
rhumerus -21.365749 9.831750 -45.777050
rradius 31.254749
rwrist -16.825600
rhand -15.173950 -15.237900
rfingers 3.562510
rthumb -1.826695 -30.212099
lclavicle -0.000000 -0.000000
lhumerus -20.894300 -4.757845 45.146351
lradius 14.063550
lwrist 2.848215
lhand -4.357925 -11.215750
lfingers 3.562510
lthumb 8.609950 3.412770
rfemur 7.789700 4.091455 15.906050
rtibia -0.000000
rfoot -6.333900 -0.976235
rtoes -7.363300
lfemur -19.811001 0.230341 -2.606745
ltibia 9.478100
lfoot -7.808650 8.509950
ltoes -6.256100
